<svg id="Capa_1" enable-background="new 0 0 512 512" height="512" viewBox="0 0 512 512" width="512" xmlns="http://www.w3.org/2000/svg"><g><path d="m213.822 392.03c-4.108-.43-7.807 2.562-8.237 6.682-1.398 13.411-2.53 26.557-3.365 39.073-1.269 19.028-15.409 33.39-32.891 33.406-17.066.166-29.132-15.137-32.518-29.959-10.703-45.883-23.838-97.25-37.986-148.545-3.864-14.011-11.164-26.925-21.11-37.345-17.833-18.682-29.61-42.62-33.606-67.992h132.244v13.583c0 15.164 12.336 27.5 27.5 27.5h104.29c15.164 0 27.5-12.336 27.5-27.5v-13.583h64.207c4.142 0 7.5-3.358 7.5-7.5s-3.358-7.5-7.5-7.5h-64.207v-15.061h168.857c4.142 0 7.5-3.358 7.5-7.5s-3.358-7.5-7.5-7.5h-23.287c-5.618-31.511-21.788-60.319-45.891-81.545-25.557-22.507-58.509-35.07-92.787-35.372-21.22-.25-44.131 4.705-63.682 14.384-14.843 7.253-31.868 7.253-46.716-.003-18.935-9.349-41.804-14.703-63.808-14.38-28.304.276-55.52 8.76-78.706 24.535-3.425 2.33-4.312 6.995-1.982 10.419 2.331 3.424 6.995 4.313 10.42 1.982 20.731-14.104 45.08-21.69 70.415-21.937 18.783-.256 39.643 4.2 57.083 12.861 19.028 9.297 40.853 9.297 59.887-.003 16.68-8.254 37.363-13.132 56.957-12.859 60.973.539 111.865 42.986 123.553 101.918h-130.311v-13.583c0-15.164-12.336-27.5-27.5-27.5h-104.29c-15.164 0-27.5 12.336-27.5 27.5v13.583h-131.298c4.228-21.174 13.753-40.897 27.812-57.383 2.688-3.152 2.311-7.886-.84-10.573-3.152-2.688-7.886-2.312-10.573.84-16.374 19.2-27.266 42.321-31.676 67.116h-22.28c-4.142 0-7.5 3.358-7.5 7.5s3.358 7.5 7.5 7.5h168.855v15.061h-168.855c-4.142 0-7.5 3.358-7.5 7.5s3.358 7.5 7.5 7.5h21.432c4.101 29.236 17.455 56.895 37.934 78.35 8.241 8.633 14.293 19.345 17.501 30.976 14.095 51.107 27.18 102.272 37.838 147.964 5.557 24.232 24.821 41.722 47.139 41.552 25.475-.024 46.043-20.405 47.844-47.408.822-12.331 1.938-25.29 3.317-38.517.429-4.12-2.563-7.808-6.683-8.237zm-9.967-275.824h104.29c6.893 0 12.5 5.607 12.5 12.5v28.613h-33.082c-4.142 0-7.5 3.358-7.5 7.5s3.358 7.5 7.5 7.5h33.082v28.613c0 6.893-5.607 12.5-12.5 12.5h-104.29c-6.893 0-12.5-5.607-12.5-12.5v-28.613h61.138c4.142 0 7.5-3.358 7.5-7.5s-3.358-7.5-7.5-7.5h-61.138v-28.613c0-6.892 5.607-12.5 12.5-12.5z"/><path d="m504.5 172.349h-69.487c-4.142 0-7.5 3.358-7.5 7.5s3.358 7.5 7.5 7.5h31.877c-3.985 25.303-15.721 49.197-33.475 67.852-9.947 10.453-17.239 23.411-21.086 37.473-15.043 54.994-27.863 104.75-37.073 143.892-2.326 10.361-11.037 35.3-33.877 35.073-17.216-.164-31.654-14.097-32.869-31.72-3.359-48.688-13.788-122.567-17.936-137.84-5.836-21.521-18.292-33.373-35.075-33.373-16.67 0-29.124 11.84-35.064 33.335-2.234 8.072-6.524 30.788-10.664 61.586-.552 4.105 2.329 7.88 6.434 8.432 4.107.551 7.88-2.33 8.432-6.434 3.866-28.762 8.084-51.745 10.254-59.585 4.096-14.82 11.029-22.334 20.607-22.334 12.026 0 17.839 12.126 20.598 22.302 3.5 12.884 14.003 85.008 17.448 134.943 1.751 25.381 22.7 45.449 47.691 45.687 23.029.289 41.816-17.231 48.622-46.636 9.169-38.97 21.943-88.546 36.94-143.37 3.194-11.677 9.24-22.428 17.483-31.09 20.39-21.426 33.694-49.035 37.784-78.193h22.436c4.142 0 7.5-3.358 7.5-7.5s-3.358-7.5-7.5-7.5z"/><path d="m212.913 144.263h10.021c4.142 0 7.5-3.358 7.5-7.5s-3.358-7.5-7.5-7.5h-10.021c-4.142 0-7.5 3.358-7.5 7.5s3.358 7.5 7.5 7.5z"/><path d="m222.934 185.877h-10.021c-4.142 0-7.5 3.358-7.5 7.5s3.358 7.5 7.5 7.5h10.021c4.142 0 7.5-3.358 7.5-7.5s-3.358-7.5-7.5-7.5z"/><path d="m289.066 144.263h10.021c4.142 0 7.5-3.358 7.5-7.5s-3.358-7.5-7.5-7.5h-10.021c-4.142 0-7.5 3.358-7.5 7.5s3.358 7.5 7.5 7.5z"/><path d="m289.066 200.877h10.021c4.142 0 7.5-3.358 7.5-7.5s-3.358-7.5-7.5-7.5h-10.021c-4.142 0-7.5 3.358-7.5 7.5s3.358 7.5 7.5 7.5z"/></g></svg>