<svg height="512" viewBox="0 0 64 64" width="512" xmlns="http://www.w3.org/2000/svg"><path d="m61 51.019v-.019h-.072c-1.126-.252-3.37-.5-7.818-1a47.3 47.3 0 0 0 -8.49-.052c1.117-2.077 2.284-4.645 3.68-7.724 1.569-3.46 3.348-7.384 5.592-11.777a25.576 25.576 0 0 0 3.108-11.447c0-9.374-6.729-17-15-17a14.937 14.937 0 0 0 -8.608 3.207 1.885 1.885 0 0 1 -2.783 0 16.563 16.563 0 0 0 -4.839-2.548 1 1 0 0 0 -1.259.635l-1.46 4.391a1 1 0 0 0 .092.83l2.444 4.073-5.034 2.517a1 1 0 0 0 -.553.895v5.674l-5.726-1.635a1 1 0 0 0 -.981.254l-4.793 4.79a1 1 0 0 0 -.239 1.031 33.836 33.836 0 0 0 1.845 4.34c2.232 4.376 4.005 8.288 5.57 11.74 1.233 2.72 2.334 5.146 3.374 7.146a65.712 65.712 0 0 0 -16.3 1.69 1 1 0 0 0 -.75.97v9a1 1 0 0 0 1 1h58a1 1 0 0 0 1-1v-8.755a.977.977 0 0 0 .031-.2c.03-.512.043-.774-1.031-1.026zm-43.5-9.651c-1.573-3.472-3.356-7.406-5.608-11.821a32.3 32.3 0 0 1 -1.529-3.5l2.93-2.93.717 5.021 1.98-.284-.782-5.473 4.792 1.373v3.969l-2.857 4.762a1 1 0 0 0 -.072.887l2 5 1.858-.744-1.817-4.539 2.269-3.78 2.934 1.467 1.853 2.779 1.664-1.11-2-3a1.01 1.01 0 0 0 -.385-.34l-3.447-1.723v-9.3l2.874 2.3-.844 3.377a1 1 0 0 0 .728 1.213l4 1 .484-1.94-3.029-.758.757-3.029a1 1 0 0 0 -.345-1.024l-3.78-3.021 4.3-2.147 3.379.676-1.415 2.829a1 1 0 0 0 0 .894l2 4 1.79-.894-1.781-3.558 1.671-3.343 3.811-2.857-1.2-1.6-3.642 2.732-4.128-.826-2.536-4.227.99-2.976a14.628 14.628 0 0 1 3.308 1.89 3.831 3.831 0 0 0 5.214 0 12.893 12.893 0 0 1 7.394-2.793c7.168 0 13 6.729 13 15a23.607 23.607 0 0 1 -2.891 10.545c-2.263 4.433-4.052 8.378-5.63 11.86-1.655 3.648-2.982 6.567-4.256 8.729-.425.035-.851.07-1.281.107-1.609.136-3.237.268-4.883.357-.059-1.186-.059-2.684-.059-4.598 0-6.967-.654-11-4-11s-4 4.033-4 11c0 1.772 0 3.255-.053 4.436-.911-.1-1.826-.232-2.751-.416a35.094 35.094 0 0 0 -3.8-.537c-1.17-2.11-2.44-4.903-3.896-8.115zm16.56 9.309c-1.359.034-2.731.019-4.118-.065.058-1.22.058-2.712.058-4.612 0-7.931 1.011-9 2-9s2 1.069 2 9c0 1.927 0 3.444.06 4.677zm25.94 9.323h-56v-7.2c2.763-.6 12.556-2.466 20.8-.817 5.736 1.148 11.11.693 16.306.254a60.335 60.335 0 0 1 11.78-.24c4.244.471 6.2.714 7.11.838z"/><path d="m7 56h4v2h-4z"/><path d="m15 54h4v2h-4z"/><path d="m44 56h4v2h-4z"/><path d="m51 54h4v2h-4z"/><path d="m22.535 2.457a.989.989 0 0 0 -.851-.439c-8.097.191-14.684 7.809-14.684 16.982a18.82 18.82 0 0 0 .117 1.993 1 1 0 0 0 1.7.6l3.6-3.6h4.583a1 1 0 0 0 1-1v-3.375l3.447-1.718a1 1 0 0 0 .523-1.138l-.918-3.673 1.574-3.673a1 1 0 0 0 -.091-.959zm-3.5 4.786.8 3.221-3.282 1.641a1 1 0 0 0 -.553.895v3h-4a1 1 0 0 0 -.707.293l-2.288 2.288c.179-7.281 4.974-13.368 11.119-14.41l-1.043 2.435a1 1 0 0 0 -.051.637z"/><path d="m37.293 32.707a1 1 0 0 0 1.414 0l4.293-4.293 2.293 2.293a1 1 0 0 0 1.414 0l4-4a1 1 0 0 0 0-1.414l-2.293-2.293 3.293-3.293a1 1 0 0 0 0-1.414l-4-4a1 1 0 0 0 -1.414 0l-3.293 3.293-2.293-2.293a1 1 0 0 0 -1.414 0l-4 4a1 1 0 0 0 0 1.414l2.293 2.293-4.293 4.293a1 1 0 0 0 0 1.414zm11.293-6.707-2.586 2.586-1.586-1.586 2.586-2.586zm-11.172-6 2.586-2.586 1.586 1.586-2.586 2.586zm9.586-3.586 2.586 2.586-11.586 11.586-2.586-2.586z"/><path d="m43 9h2v2h-2z"/><path d="m23 35h2v2h-2z"/><path d="m44 34h2v2h-2z"/></svg>