<svg id="Capa_1" enable-background="new 0 0 512 512" height="512" viewBox="0 0 512 512" width="512" xmlns="http://www.w3.org/2000/svg"><g><path d="m505.668 113.04-46.814-18.457-18.463-46.797c-1.507-3.819-5.195-6.33-9.302-6.33s-7.795 2.511-9.302 6.33l-15.907 40.318c-.463-.471-.938-.947-1.425-1.426-35.937-35.308-90.427-43.137-135.597-19.484-10.499 5.498-29.625 5.498-40.128 0-45.167-23.656-99.66-15.824-135.594 19.483-1.607 1.579-3.092 3.129-4.412 4.606-22.381 25.055-34.707 57.984-34.707 92.723 0 55.524 27.725 84.309 50.001 107.438 5.531 5.743 10.622 11.028 14.813 16.214-3.938.163-7.429 2.631-8.885 6.321l-21.23 53.812-53.833 21.224c-3.82 1.506-6.332 5.195-6.332 9.303s2.511 7.797 6.332 9.303l53.833 21.225 21.23 53.812c1.507 3.819 5.195 6.33 9.302 6.33s7.795-2.511 9.302-6.33l21.23-53.812 2.668-1.052c15.377 19.185 37.01 31.857 61.701 35.974 2.9.479 5.865-.334 8.108-2.233 2.243-1.9 3.536-4.691 3.536-7.631v-119.431c0-11.313 9.208-20.609 20.527-20.723.072 0 .144-.001.215-.001 5.499 0 10.672 2.126 14.585 6 3.961 3.922 6.143 9.15 6.143 14.724v119.429c0 2.939 1.293 5.73 3.536 7.631 1.819 1.541 4.114 2.369 6.464 2.369.547 0 1.097-.045 1.645-.136 25.786-4.3 47.669-17.438 63.283-37.994 15.024-19.781 22.966-44.662 22.966-71.955v-18.152c0-15.371 11.539-27.352 26.148-42.52 20.821-21.616 46.7-48.486 49.713-97.837l17.835-45.205 46.814-18.457c3.82-1.506 6.332-5.195 6.332-9.303s-2.511-7.797-6.331-9.303zm-372.897 304.424-13.522 34.273-13.522-34.273c-1.017-2.577-3.057-4.617-5.634-5.633l-34.276-13.515 34.276-13.514c2.577-1.016 4.617-3.056 5.634-5.633l13.522-34.273 13.522 34.273c1.017 2.577 3.057 4.617 5.634 5.633l34.276 13.514-34.276 13.515c-2.578 1.016-4.618 3.056-5.634 5.633zm39.36 2.567 31.481-12.412c.786-.31 1.517-.712 2.182-1.192v34.828c-13.033-4.113-24.417-11.292-33.663-21.224zm204.77-140.761c-16.325 16.949-31.744 32.958-31.744 56.395v18.152c0 42.491-22.814 76.189-57.894 87.412v-106.756c0-10.953-4.287-21.229-12.072-28.937-7.788-7.71-18.148-11.905-29.07-11.784-22.236.221-40.327 18.488-40.327 40.721v55.733c-.665-.479-1.396-.882-2.182-1.192l-52.276-20.61c-.777-5.315-1.17-10.774-1.17-16.288v-18.152c0-23.437-15.419-39.445-31.743-56.394-20.814-21.61-44.406-46.104-44.406-93.563 0-29.816 10.521-58.015 29.623-79.398 1.031-1.155 2.213-2.388 3.513-3.664 29.721-29.2 74.852-35.644 112.3-16.033 16.456 8.618 42.231 8.618 58.686 0 37.056-19.405 81.636-13.3 111.361 15.124l-32.99 13.004c-3.82 1.506-6.332 5.195-6.332 9.303s2.512 7.797 6.332 9.303l46.814 18.457 17.678 44.807c-2.806 41.485-24.729 64.247-44.101 84.36zm70.577-146.18c-2.577 1.016-4.617 3.056-5.634 5.633l-10.755 27.259-10.755-27.259c-1.017-2.577-3.057-4.617-5.634-5.633l-27.258-10.747 27.258-10.747c2.577-1.016 4.617-3.056 5.634-5.633l10.755-27.259 10.755 27.259c1.017 2.577 3.057 4.617 5.634 5.633l27.258 10.747z"/><path d="m40.879 55.913c5.522 0 10-4.478 10-10v-12.898c0-5.522-4.478-10-10-10s-10 4.478-10 10v12.898c0 5.523 4.477 10 10 10z"/><path d="m40.879 71.852c-5.522 0-10 4.478-10 10v12.898c0 5.522 4.478 10 10 10s10-4.478 10-10v-12.898c0-5.523-4.478-10-10-10z"/><path d="m58.854 73.882h12.903c5.522 0 10-4.478 10-10s-4.478-10-10-10h-12.903c-5.522 0-10 4.478-10 10s4.477 10 10 10z"/><path d="m32.903 63.882c0-5.522-4.478-10-10-10h-12.903c-5.522 0-10 4.478-10 10s4.478 10 10 10h12.903c5.523 0 10-4.478 10-10z"/><path d="m278.202 217.394c-14.855 14.851-39.028 14.853-53.884 0-3.907-3.905-10.237-3.903-14.143.002-3.904 3.906-3.903 10.238.002 14.143 11.327 11.323 26.205 16.984 41.082 16.984 14.878 0 29.756-5.661 41.083-16.984 3.905-3.904 3.906-10.236.002-14.143-3.905-3.905-10.235-3.907-14.142-.002z"/><path d="m283.444 186.588c5.522 0 10-4.478 10-10v-31.243c0-5.522-4.478-10-10-10s-10 4.478-10 10v31.243c0 5.522 4.478 10 10 10z"/><path d="m219.077 186.588c5.522 0 10-4.478 10-10v-31.243c0-5.522-4.478-10-10-10s-10 4.478-10 10v31.243c0 5.522 4.478 10 10 10z"/></g></svg>