<svg id="Outline" height="512" viewBox="0 0 512 512" width="512" xmlns="http://www.w3.org/2000/svg"><path d="m370.343 237.688a8.006 8.006 0 0 0 7.226 2.187c3.138-.628 31.025-6.5 43.686-19.158a24 24 0 1 0 -33.942-33.941c-12.66 12.662-18.53 40.548-19.158 43.686a8.005 8.005 0 0 0 2.188 7.226zm28.284-39.6a8 8 0 1 1 11.314 11.312c-4.807 4.808-14.347 8.729-22.675 11.379 2.658-8.312 6.597-17.925 11.361-22.69z"/><path d="m441.569 183.875c3.138-.628 31.025-6.5 43.686-19.158a24 24 0 1 0 -33.942-33.941c-12.66 12.662-18.53 40.548-19.158 43.686a8 8 0 0 0 9.414 9.414zm21.058-41.786a8 8 0 1 1 11.314 11.311c-4.807 4.808-14.347 8.729-22.675 11.379 2.658-8.312 6.597-17.925 11.361-22.69z"/><path d="m408 152.03a8 8 0 0 0 6.656-3.562c1.776-2.663 17.344-26.532 17.344-44.438a24 24 0 1 0 -48 0c0 17.906 15.568 41.775 17.344 44.438a8 8 0 0 0 6.656 3.562zm0-56a8.009 8.009 0 0 1 8 8c0 6.8-3.973 16.318-7.987 24.079-4-7.757-8.013-17.34-8.013-24.079a8.009 8.009 0 0 1 8-8z"/><path d="m458.53 232.44c-28.693-9.564-47.886 9.631-72.187 33.933-11.188 11.188-26.662 18.238-40.538 22.632 4.327-19.688 4.7-35.369 5.032-49.776.413-17.715.769-33.015 8.573-52.182 9.426-23.157 11.478-60.132-6.3-86.591-8.69-12.946-25.656-28.387-57.1-28.426h-.056c-15.251 0-29.52 7.865-42.109 14.8-8.2 4.521-16.685 9.2-21.814 9.2h-.016c-5.416-.009-15.713-4.8-25.67-9.433-14.677-6.829-31.306-14.567-46.3-14.567h-.055c-21.462.028-38.669 8.741-49.76 25.2-17.2 25.521-15.86 64.491-5.649 89.8 7.27 18.015 8.029 32.593 8.447 48.968-24.159-16.792-49.008-33.741-67.558-27.558-23.311 7.771-29.47 29.294-29.47 39.59v184a8 8 0 0 0 8 8h464a8 8 0 0 0 8-8v-144c0-27.39-13.657-47.652-37.47-55.59zm-335.03-126.27c8.1-12.017 20.382-18.119 36.511-18.14h.036c11.452 0 26.379 6.946 39.55 13.074 12.582 5.853 23.448 10.91 32.389 10.926h.044c9.248 0 19.106-5.433 29.54-11.184 10.9-6.008 23.25-12.816 34.387-12.816h.034c19.594.025 34.345 7.207 43.843 21.347 14.511 21.6 12.638 52.278 4.757 71.637-8.91 21.889-9.318 39.353-9.749 57.841-.5 21.512-1.02 43.755-14.308 78.3-7.05 18.331-19.882 26.872-40.38 26.872h-.138c-3.092-.006-8.742-2.5-14.49-9.529-6.628-8.1-12.651-22.048-9.68-36.9 6.576-32.885 5.353-53.43-3.851-64.658-3.334-4.065-9.508-8.912-19.994-8.912s-16.66 4.847-19.994 8.912c-9.2 11.228-10.427 31.773-3.851 64.658 2.971 14.853-3.052 28.8-9.68 36.9-5.748 7.024-11.4 9.523-14.49 9.529h-.138c-20.5 0-33.33-8.542-40.38-26.872-13.314-34.616-13.849-56.876-14.366-78.4-.444-18.443-.862-35.861-9.682-57.719-8.42-20.864-9.852-54.193 4.08-74.866zm-18.37 143.817c2.956 2.055 5.793 4.025 8.58 5.927 1.044 17.972 4.035 38.935 14.824 66.988 6.518 16.947 21.4 37.13 55.322 37.128h.16c9.067-.017 18.85-5.629 26.842-15.4 11.584-14.158 16.439-32.914 12.988-50.173-7.095-35.477-2.711-47.415.535-51.374 1.166-1.423 3.087-3.057 7.62-3.057s6.454 1.634 7.62 3.057c3.246 3.959 7.63 15.9.535 51.374-3.451 17.259 1.4 36.015 12.988 50.173 7.992 9.767 17.775 15.379 26.842 15.4h.16c33.914 0 48.8-20.182 55.322-37.128 2.142-5.57 3.971-10.856 5.543-15.9a153.545 153.545 0 0 0 34.173-12.977c-5.577 24.912-13.548 45.451-23.783 61.216-16.072 24.759-36.811 36.789-63.358 36.789-1.154-.012-28.519-.634-49.643-28.8a8 8 0 0 0 -12.8 0c-21.124 28.166-48.489 28.788-49.6 28.8-35.142 0-61.295-22.144-77.732-65.819-11.842-31.464-16.11-67.622-17.608-92.434 8.349 5.007 16.976 11.002 24.469 16.21zm374.87 174.043h-448v-176c0-.182.212-18.3 18.53-24.41 3.459-1.154 8.223-.305 13.69 1.787 1.017 25.453 4.932 68.867 19.073 106.44 8.492 22.564 19.666 40.408 33.211 53.034 16.478 15.361 36.496 23.149 59.496 23.149 1.353 0 30.949-.341 56-27.5 25.051 27.161 54.647 27.5 56 27.5 31.986 0 57.832-14.829 76.82-44.076 13.489-20.778 23.3-48.66 29.209-82.87 1.24-1.1 2.454-2.223 3.628-3.4 25.312-25.313 37.283-36.247 55.813-30.068 9.908 3.3 26.53 12.944 26.53 40.41z"/></svg>