<svg height="503pt" viewBox="0 0 503.7769 503" width="503pt" xmlns="http://www.w3.org/2000/svg"><path d="m456.648438 38.90625c-7.332032-22.425781-27.949219-37.835938-51.535157-38.519531-24.484375.789062-39.75 21.992187-45.878906 41.574219-1.503906 5.246093-2.542969 10.617187-3.097656 16.046874-.351563 2.6875-.703125 5.382813-1.222657 8.101563-.152343.839844-.363281 1.570313-.53125 2.359375-77.453124-.246094-116.257812 69.976562-123.382812 84.519531-4.15625 8.582031-5.980469 18.105469-5.289062 27.617188l-14.410157 17.097656-9.234375 10.910156c-34.871094-6.285156-102.800781 2.652344-195.976562 113.175781-9.207032 10.925782-7.816406 27.25 3.109375 36.457032 10.925781 9.210937 27.25 7.816406 36.457031-3.109375 5.515625-6.546875 10.910156-12.589844 16.105469-18.28125l.085937-.066407v-.066406c87.234375-94.738281 135.972656-75.886718 136.089844-75.878906 10.851562 6.175781 24.5625 3.738281 32.617188-5.796875l19.851562-23.554687 5.875 3.359374c.132812.089844.277344.175782.421875.257813l3.582031 2.050781-21.160156 25.09375c-7.925781 9.277344-8.214844 22.855469-.6875 32.460938.308594.46875 27.628906 45.28125-51.277344 147.648437h-.050781v.082031c-4.730469 6.128907-9.785156 12.429688-15.300781 18.976563-6.476563 7.691406-7.910156 18.4375-3.679688 27.558594 4.230469 9.121093 13.359375 14.964843 23.414063 14.988281.746093 0 1.492187-.03125 2.242187-.101562 6.839844-.558594 13.171875-3.835938 17.582032-9.097657 93.109374-110.449219 90.449218-178.878906 78.335937-212.210937l9.234375-10.960938 14.269531-16.953125c9.550781-.933593 18.679688-4.414062 26.429688-10.074219 23.332031-16.882812 41.835937-39.585937 53.667969-65.847656 5.183593-1.304687 10.058593-3.617187 14.351562-6.804687 7.570312-5.238281 14.675781-11.117188 21.238281-17.578125 5.332031-4.667969 11.53125-8.242188 18.246094-10.515625 2.515625-.957031 5.152344-1.753907 7.746094-2.519531 5.25-1.46875 10.363281-3.398438 15.277343-5.765626 18.253907-9.351562 36.570313-27.984374 33.210938-52.222656-4.570312-23.222656-23.300781-41.027344-46.726562-44.410156zm-120.753907 101.105469c2.363281 2.078125 5.421875 3.199219 8.570313 3.148437 5.875 0 14.644531-3.355468 28.394531-13.773437-6.667969 14.152343-15.5 27.179687-26.179687 38.609375-7.988282 7.574218-20.039063 8.90625-29.488282 3.257812l-6.789062-3.894531-.386719-.234375-21.628906-12.457031c8.089843-17.988281 29.628906-37.367188 48.867187-51.8125-1.175781 2.199219-2.285156 4.441406-3.292968 6.714843-2.835938 6.261719-9.484376 20.824219 1.933593 30.441407zm-6.933593-51.960938c-20.144532 14.855469-45.519532 36.929688-55.859376 59.726563-8.128906-1.570313-16.539062.375-23.15625 5.347656 10.039063-17.570312 35.636719-54.332031 79.015626-65.074219zm-302.339844 259.507813c-2.40625.234375-4.800782-.523438-6.632813-2.097656-3.828125-3.238282-4.316406-8.960938-1.089843-12.800782 3.558593-4.195312 7.066406-8.234375 10.535156-12.144531l13.863281 11.707031c-3.464844 3.894532-6.964844 7.914063-10.53125 12.144532-1.542969 1.839843-3.753906 2.988281-6.144531 3.191406zm28.074218-27.699219-13.914062-11.726563c40.195312-42.605468 74.238281-64.425781 101.179688-75.019531l6.632812 17.074219c-24.242188 9.464844-55.773438 29.441406-93.898438 69.671875zm197.246094-46.742187 23.125-27.4375 6.246094 3.574218c.097656.058594.214844.074219.324219.132813.109375.058593.101562.09375.167969.128906 3.445312 1.5625 7.039062 2.78125 10.726562 3.632813l-18.902344 22.453124c-2.050781 2.433594-2.546875 5.824219-1.28125 8.746094 5.664063 14.265625 7.683594 29.71875 5.875 44.964844l-18.148437-3.695312c1.757812-13.855469-.941407-27.914063-7.703125-40.136719-.15625-.238281-.324219-.46875-.503906-.6875-2.820313-3.40625-2.785157-8.347657.082031-11.710938zm-32.992187 185.199218-13.910157-11.75c33.195313-44.375 47.589844-78.839844 52.777344-104.328125l17.945313 3.648438c-5.839844 28.363281-21.652344 65.613281-56.8125 112.429687zm-26.640625 28.910156c-2.40625.242188-4.804688-.519531-6.632813-2.101562-3.828125-3.234375-4.316406-8.960938-1.089843-12.796875 3.566406-4.199219 6.941406-8.394531 10.1875-12.433594l13.875 11.703125c-3.265626 4.085938-6.621094 8.214844-10.179688 12.4375-1.542969 1.84375-3.765625 2.996094-6.160156 3.191406zm137.53125-256.246093c-6.234375 4.519531-13.703125 7.023437-21.402344 7.175781h-.058594c-6.523437.160156-13.007812-1.082031-19.011718-3.640625l-24.039063-13.757813-.367187-.226562-12.253907-7.042969c-.277343-.148437-.589843-.15625-.839843-.285156-.515626-.234375-1.058594-.414063-1.613282-.535156-.5-.101563-1.007812-.160157-1.519531-.167969-.5625-.015625-1.125.027344-1.675781.125-.507813.089844-1.003906.230469-1.480469.417969-.507813.1875-1 .425781-1.457031.714843-.464844.292969-.898438.636719-1.285156 1.023438-.257813.175781-.507813.371094-.738282.578125l-24.34375 28.917969c-2.835937 3.34375-7.652344 4.199218-11.464844 2.03125-.246093-.144532-.5-.273438-.761718-.386719-13.191406-4.613281-27.507813-4.910156-40.878906-.839844l-6.710938-17.265625c14.722656-4.363281 30.300781-4.972656 45.324219-1.777344 3.089843.75 6.339843-.3125 8.390625-2.746093l46.273437-54.894531c3.917969-4.617188 10.570313-5.789063 15.832031-2.792969l27.578126 15.8125.394531.242187 7.136719 4.082032c15.996093 9.40625 36.300781 7.003906 49.664062-5.875 11.457031-12.09375 21.003906-25.859376 28.320312-40.828126-5.296874 52.878907-50.875 87.511719-57.011718 91.941407zm132.667968-110.449219c-4.054687 1.914062-8.265624 3.476562-12.589843 4.667969-2.914063.90625-5.824219 1.8125-8.636719 2.863281-8.796875 3.039062-16.898438 7.796875-23.84375 13.992188-5.21875 5.011718-10.757812 9.683593-16.578125 13.980468 4.207031-17.773437 4.25-36.277344.125-54.070312-.847656-3.664063-4.03125-6.320313-7.789063-6.496094-3.054687-.050781-5.90625 1.523438-7.496093 4.128906-3.867188 1.304688-7.421875 3.390625-10.449219 6.128906-8.40625 8.390626-18.21875 15.246094-28.992188 20.253907.386719-3.355469 1.417969-6.601563 3.039063-9.5625 3.511719-7.464844 7.65625-14.621094 12.382813-21.386719 4.914062-7.878906 8.226562-16.652344 9.742187-25.816406.570313-2.996094.972656-6.011719 1.367187-9.023438.460938-4.46875 1.300782-8.894531 2.519532-13.21875 4.195312-13.429687 14.679687-29.300781 30.417968-29.804687 17.683594.9375 32.496094 13.707031 36.035157 31.054687 0 .109375.089843.183594.105469.292969.019531.109375 0 .246094 0 .371094 2.5 9.75 2.398437 19.988281-.292969 29.6875-1.796875 4.273437.210937 9.195312 4.484375 10.996093 4.273437 1.796876 9.195312-.210937 10.992187-4.484374 3.234375-8.996094 4.273438-18.636719 3.039063-28.117188 13.449218 3.953125 23.675781 14.910156 26.691406 28.597656 2.125 15.535156-11.742188 28.554688-24.273438 34.964844zm0 0"/><path d="m293.421875 201.738281c0 4.636719-3.757813 8.394531-8.394531 8.394531-4.632813 0-8.390625-3.757812-8.390625-8.394531s3.757812-8.394531 8.390625-8.394531c4.636718 0 8.394531 3.757812 8.394531 8.394531zm0 0"/><path d="m421.976562 34.296875c-8.828124-3.046875-18.550781-2.070313-26.597656 2.671875-6.71875 5.269531-10.339844 13.570312-9.628906 22.082031 0 4.636719 3.757812 8.394531 8.394531 8.394531s8.394531-3.757812 8.394531-8.394531c-.355468-3.0625.601563-6.132812 2.632813-8.453125 3.664063-1.570312 7.785156-1.699218 11.542969-.359375 4.402344 1.453125 9.152344-.941406 10.605468-5.34375 1.453126-4.402343-.941406-9.152343-5.34375-10.605469zm0 0"/></svg>