<?xml version="1.0" encoding="iso-8859-1"?>
<!-- Generator: Adobe Illustrator 19.0.0, SVG Export Plug-In . SVG Version: 6.00 Build 0)  -->
<svg version="1.1" id="Capa_1" xmlns="http://www.w3.org/2000/svg" xmlns:xlink="http://www.w3.org/1999/xlink" x="0px" y="0px"
	 viewBox="0 0 512 512" style="enable-background:new 0 0 512 512;" xml:space="preserve">
<path style="fill:#E6E6E6;" d="M209.621,14.259L209.621,14.259c-8.806-3.78-18.278-5.726-27.861-5.726l0,0
	c-39.117,0-70.827,31.71-70.827,70.827l0,0c0.009,31.991,7.458,63.548,21.76,92.16l12.373,41.813h221.867l12.373-41.813
	c14.302-28.612,21.751-60.169,21.76-92.16l0,0c0-39.117-31.71-70.827-70.827-70.827l0,0c-9.591,0-19.072,1.946-27.887,5.726l0,0
	C272.742,26.94,239.232,26.94,209.621,14.259z"/>
<path style="fill:#F7F7F7;" d="M153.6,93.867h-17.067v-10.24c0.452-20.361,11.878-38.878,29.867-48.41l8.533,14.857
	c-12.663,6.511-20.821,19.362-21.333,33.596V93.867z"/>
<polygon style="fill:#3E8CC7;" points="281.6,503.467 230.4,503.467 213.333,460.8 213.333,264.533 298.667,264.533 298.667,460.8 
	"/>
<g>
	
		<rect x="247.487" y="229.925" transform="matrix(-0.1104 0.9939 -0.9939 -0.1104 589.602 86.6532)" style="fill:#4398D1;" width="17.067" height="154.541"/>
	
		<rect x="247.422" y="281.127" transform="matrix(-0.1104 0.9939 -0.9939 -0.1104 640.4196 143.5728)" style="fill:#4398D1;" width="17.067" height="154.541"/>
	
		<rect x="247.46" y="332.348" transform="matrix(-0.1104 0.9939 -0.9939 -0.1104 691.3695 200.4117)" style="fill:#4398D1;" width="17.067" height="154.541"/>
	
		<rect x="247.463" y="383.517" transform="matrix(-0.1104 0.9939 -0.9939 -0.1104 742.2289 257.2255)" style="fill:#4398D1;" width="17.067" height="154.541"/>
</g>
<g>
	<rect x="179.2" y="213.333" style="fill:#DEDEDE;" width="153.6" height="51.2"/>
	<path style="fill:#DEDEDE;" d="M374.707,24.26c-48.649,109.833-136.576,162.799-199.424,189.073h191.65l12.373-41.813
		c14.302-28.612,21.751-60.169,21.76-92.16l0,0C401.092,57.95,391.39,37.683,374.707,24.26z"/>
</g>
<rect x="256" y="213.333" style="fill:#D1D1D1;" width="76.8" height="51.2"/>
<path d="M330.24,0c-10.743-0.009-21.376,2.176-31.249,6.417c-27.477,11.716-58.556,11.716-86.033,0l0,0
	c-40.303-17.229-86.938,1.476-104.166,41.771c-4.215,9.856-6.391,20.454-6.391,31.172c0.034,33.067,7.68,65.681,22.323,95.326
	l12.16,41.097c1.084,3.618,4.412,6.084,8.183,6.084h25.6v42.667c0,4.71,3.823,8.533,8.533,8.533h25.6v19.857l-24.661-2.739
	l-1.877,16.964l26.539,2.953v34.022l-24.661-2.739l-1.877,16.964l26.539,2.953v34.022l-24.661-2.739l-1.877,16.964l26.539,2.953
	v34.022l-24.661-2.739l-1.877,16.964l27.11,3.012c0,0.068,0,0.137,0,0.205l17.067,42.667c1.297,3.251,4.454,5.385,7.962,5.367h51.2
	c3.49,0,6.63-2.125,7.927-5.367l12.8-32.094l29.5,3.277l1.877-16.964l-26.505-2.953v-34.022l24.661,2.739l1.877-16.964
	l-26.539-2.953v-34.022l24.661,2.739l1.877-16.964l-26.539-2.953v-34.022l24.661,2.739l1.877-16.964l-26.539-2.953v-31.232h25.6
	c4.71,0,8.533-3.823,8.533-8.533v-42.667h25.6c3.78,0,7.108-2.483,8.183-6.11l12.16-41.097c14.643-29.636,22.281-62.242,22.323-95.3
	C409.566,35.541,374.059,0.034,330.24,0z M275.797,494.933h-39.62l-11.614-29.013l60.203,6.69L275.797,494.933z M290.133,456.004
	l-68.267-7.586v-34.022l68.267,7.586V456.004z M290.133,404.804l-68.267-7.586v-34.022l68.267,7.586V404.804z M290.133,353.604
	l-68.267-7.586v-34.022l68.267,7.586V353.604z M290.133,302.404l-68.267-7.586v-21.751h68.267V302.404z M324.267,256H187.733
	v-34.133h136.533V256z M371.669,167.706c-0.222,0.444-0.401,0.913-0.546,1.391L360.559,204.8H151.441l-10.564-35.703
	c-0.145-0.478-0.324-0.947-0.546-1.391c-13.687-27.443-20.821-57.677-20.864-88.346c0.009-34.406,27.904-62.285,62.31-62.276
	c8.414,0,16.742,1.707,24.482,5.018c31.77,13.551,67.703,13.551,99.473,0c31.633-13.534,68.241,1.135,81.775,32.759
	c3.319,7.748,5.026,16.077,5.026,24.499C392.499,110.029,385.357,140.262,371.669,167.706z"/>
<path d="M136.533,83.669v10.197H153.6v-10.24c0.512-14.234,8.67-27.085,21.333-33.596L166.4,35.26
	C148.412,44.791,136.986,63.309,136.533,83.669z"/>
<g>
</g>
<g>
</g>
<g>
</g>
<g>
</g>
<g>
</g>
<g>
</g>
<g>
</g>
<g>
</g>
<g>
</g>
<g>
</g>
<g>
</g>
<g>
</g>
<g>
</g>
<g>
</g>
<g>
</g>
</svg>
